<svg xmlns="http://www.w3.org/2000/svg" viewBox="0 0 48 48"><path fill="#42a5f5" d="M26 29H16a2 2 0 0 0-2 2v6a2 2 0 0 0 2 2h10a2 2 0 0 0 2-2v-6a2 2 0 0 0-2-2Zm0 2v6l-3-3-1.78 1.78L19 33l-3 3.75V31Z"/><path fill="#42a5f5" d="M35 0H13a3 3 0 0 0-3 3v42a3 3 0 0 0 3 3h22a3 3 0 0 0 3-3V3a3 3 0 0 0-3-3Zm-9 46h-4a1 1 0 0 1 0-2h4a1 1 0 0 1 0 2Zm10-4H12V3a1 1 0 0 1 1-1h5a2 2 0 0 0 2 2h8a2 2 0 0 0 2-2h5a1 1 0 0 1 1 1Z"/><path fill="#424242" d="M33 39h-2a1 1 0 0 1 0-2h2a1 1 0 0 1 0 2zm0-4h-2a1 1 0 0 1 0-2h2a1 1 0 0 1 0 2zm0-4h-2a1 1 0 0 1 0-2h2a1 1 0 0 1 0 2zm0-4H15a1 1 0 0 1 0-2h18a1 1 0 0 1 0 2zm0-4H15a1 1 0 0 1 0-2h18a1 1 0 0 1 0 2z"/><path fill="#42a5f5" d="m22.05 15.68 2-6a1 1 0 0 1 1.9.64l-2 6a1 1 0 0 1-1.9-.64zM28 16a1 1 0 0 1-.71-1.71l1.3-1.29-1.3-1.29a1 1 0 0 1 1.42-1.42l2 2a1 1 0 0 1 0 1.42C28.53 15.89 28.54 16 28 16zm-8 0c-.54 0-.57-.15-2.71-2.29a1 1 0 0 1 0-1.42l2-2a1 1 0 0 1 1.42 1.42L19.41 13l1.3 1.29A1 1 0 0 1 20 16z"/></svg>