<svg xmlns="http://www.w3.org/2000/svg" xmlns:xlink="http://www.w3.org/1999/xlink" viewBox="0 0 64 64"><defs><linearGradient id="b" x1="32" x2="32" y1="47" y2="37" gradientUnits="userSpaceOnUse"><stop offset="0" stop-color="#54a5ff"/><stop offset="1" stop-color="#8ad3fe"/></linearGradient><linearGradient id="a" x1="30" x2="34" y1="42" y2="42" gradientUnits="userSpaceOnUse"><stop offset="0" stop-color="#d3e6f5"/><stop offset="1" stop-color="#f0f7fc"/></linearGradient><linearGradient id="c" x1="32" x2="32" y1="37" y2="5" xlink:href="#a"/><linearGradient id="d" y1="16" y2="8" xlink:href="#b"/></defs><path fill="url(#b)" d="M60 37v4a6 6 0 0 1-6 6H10a6 6 0 0 1-6-6v-4Z"/><path fill="#4795ea" d="M42.29 59H21.71l4.12-12h12.34l4.12 12z"/><path fill="url(#a)" d="M33 43h-2a1 1 0 0 1 0-2h2a1 1 0 0 1 0 2Z"/><path fill="url(#c)" d="M60 11v26H4V11a6 6 0 0 1 6-6h44a6 6 0 0 1 6 6Z"/><path fill="url(#a)" d="M33 43h-2a1 1 0 0 1 0-2h2a1 1 0 0 1 0 2Z"/><path fill="url(#c)" d="M60 11v26H4V11a6 6 0 0 1 6-6h44a6 6 0 0 1 6 6Z"/><path fill="#0668cb" d="M44 60H20a1 1 0 0 1 0-2h24a1 1 0 0 1 0 2Z"/><path fill="url(#d)" d="M51 10v6H13v-6a2 2 0 0 1 2-2h34a2 2 0 0 1 2 2Z"/><path fill="#f0f7fc" d="M51 16v16a2 2 0 0 1-2 2H15a2 2 0 0 1-2-2V16Z"/><path fill="#fe9661" d="M18 13h-1a1 1 0 0 1 0-2h1a1 1 0 0 1 0 2Z"/><path fill="#54a5ff" d="M23 13h-1a1 1 0 0 1 0-2h1a1 1 0 0 1 0 2Z"/><path fill="#d7e9f7" d="M28 13h-1a1 1 0 0 1 0-2h1a1 1 0 0 1 0 2Z"/><path fill="#b4cde1" d="M45 25h-2v-2a1 1 0 0 0-2 0v2h-2a1 1 0 0 0 0 2h2v2a1 1 0 0 0 2 0v-2h2a1 1 0 0 0 0-2zm-10 0h-2v-2a1 1 0 0 0-2 0v2h-2a1 1 0 0 0 0 2h2v2a1 1 0 0 0 2 0v-2h2a1 1 0 0 0 0-2z"/><path fill="#b4cde1" d="M26.61 29.67A4.11 4.11 0 0 1 25 30a4 4 0 0 1 0-8 4.11 4.11 0 0 1 1.61.33 1 1 0 0 0 .78-1.84A6.16 6.16 0 0 0 25 20a6 6 0 0 0 0 12 6.16 6.16 0 0 0 2.39-.49 1 1 0 0 0-.78-1.84Z"/></svg>